<svg width="407" height="212" viewBox="0 0 407 212" fill="none" xmlns="http://www.w3.org/2000/svg">
<path d="M379.117 180.477H406.609V185.138H372.086V136H405.503V140.661H379.117V157.646H402.264V162.307H379.117V180.477Z" fill="white"/>
<path d="M349.986 136H356.306V185.138H349.354L321.625 144.137V185.138H315.305V136H322.652L349.986 176.606V136Z" fill="white"/>
<path d="M300.292 142.241V178.897C300.292 183.058 298.211 185.138 294.051 185.138H268.218C264.057 185.138 261.977 183.058 261.977 178.897V142.241C261.977 138.08 264.057 136 268.218 136H294.051C298.211 136 300.292 138.08 300.292 142.241ZM293.498 178.028V143.11C293.498 142.057 293.34 141.398 293.024 141.135C292.76 140.819 292.102 140.661 291.049 140.661H271.299C270.245 140.661 269.561 140.819 269.245 141.135C268.981 141.398 268.85 142.057 268.85 143.11V178.028C268.85 179.081 268.981 179.766 269.245 180.082C269.561 180.345 270.245 180.477 271.299 180.477H291.049C292.102 180.477 292.76 180.345 293.024 180.082C293.34 179.766 293.498 179.081 293.498 178.028Z" fill="white"/>
<path d="M250.132 136V140.661L217.9 180.477H249.342V185.138H210V180.477L242.232 140.661H210.79V136H250.132Z" fill="white"/>
<path d="M355.5 0L355.771 0.00488281C358.561 0.105133 361.075 1.75077 362.278 4.28711C363.519 6.90508 363.141 10.004 361.307 12.2471L300.624 86.4727C299.2 88.2149 297.068 89.2255 294.818 89.2256H188.617V187.535C188.617 190.706 186.624 193.533 183.638 194.599C180.652 195.664 177.319 194.737 175.312 192.282L101.243 101.685L13.3069 209.247C10.6852 212.454 5.96002 212.928 2.7532 210.307C-0.453591 207.685 -0.928024 202.96 1.69363 199.753L91.5559 89.835L33.8479 19.249C31.2266 16.0423 31.701 11.318 34.9075 8.69629C38.0141 6.15644 42.5455 6.52196 45.2093 9.46289L45.4612 9.75488L101.243 77.9863L162.751 2.75293C164.176 1.01067 166.307 6.91981e-05 168.558 0H355.5ZM110.931 89.8359L173.617 166.512V81.7256C173.617 77.5836 176.976 74.2258 181.117 74.2256H291.261L339.681 15H172.114L110.931 89.8359Z" fill="url(#paint0_linear_1987_7358)"/>
<path d="M281 33C286.523 33 291 37.4772 291 43C291 48.5228 286.523 53 281 53H206C200.477 53 196 48.5228 196 43C196 37.4772 200.477 33 206 33H281Z" fill="url(#paint1_linear_1987_7358)"/>
<defs>
<linearGradient id="paint0_linear_1987_7358" x1="-1.72416e-06" y1="165.625" x2="178.346" y2="-72.3884" gradientUnits="userSpaceOnUse">
<stop stop-color="#E44963"/>
<stop offset="1" stop-color="#FE9851"/>
</linearGradient>
<linearGradient id="paint1_linear_1987_7358" x1="196" y1="48.625" x2="204.826" y2="15.9478" gradientUnits="userSpaceOnUse">
<stop stop-color="#E44963"/>
<stop offset="1" stop-color="#FE9851"/>
</linearGradient>
</defs>
</svg>
